<svg width="17" height="13" viewBox="0 0 17 13" fill="none" xmlns="http://www.w3.org/2000/svg">
<path d="M1.2875 5.58105L1.87125 6.73105C1.47125 7.1248 1.25 7.55355 1.25 7.98855C1.25 9.59605 4.28375 11.1136 8.125 11.1136C11.9662 11.1136 15 9.59605 15 7.98855C15 7.55355 14.7775 7.12605 14.3787 6.7323L14.9738 5.59105C15.78 6.26605 16.25 7.08355 16.25 7.98855C16.25 10.5223 12.5675 12.3636 8.125 12.3636C3.6825 12.3636 0 10.5223 0 7.98855C0 7.07855 0.475 6.25855 1.2875 5.58105Z" fill="url(#paint0_linear_1685_1928)"/>
<path d="M8.125 8.75C3.6825 8.75 0 6.90875 0 4.375C0 1.84125 3.6825 0 8.125 0C12.5675 0 16.25 1.84125 16.25 4.375C16.25 6.90875 12.5675 8.75 8.125 8.75ZM8.125 7.5C11.9662 7.5 15 5.9825 15 4.375C15 2.7675 11.9662 1.25 8.125 1.25C4.28375 1.25 1.25 2.7675 1.25 4.375C1.25 5.9825 4.28375 7.5 8.125 7.5Z" fill="url(#paint1_linear_1685_1928)"/>
<defs>
<linearGradient id="paint0_linear_1685_1928" x1="0" y1="8.9723" x2="16.25" y2="8.9723" gradientUnits="userSpaceOnUse">
<stop stop-color="#160D0D"/>
<stop offset="1" stop-color="#9E1518"/>
</linearGradient>
<linearGradient id="paint1_linear_1685_1928" x1="0" y1="4.375" x2="16.25" y2="4.375" gradientUnits="userSpaceOnUse">
<stop stop-color="#160D0D"/>
<stop offset="1" stop-color="#9E1518"/>
</linearGradient>
</defs>
</svg>
