<svg width="20" height="20" viewBox="0 0 20 20" fill="none" xmlns="http://www.w3.org/2000/svg">
<path d="M9.71255 4.82328C9.49966 3.66273 10.0484 2.4684 10.7093 1.66352C11.4376 0.77543 12.6875 0.094375 13.7556 0.0195312C13.936 1.23629 13.4395 2.4218 12.7858 3.26035C12.0847 4.16121 10.8791 4.8598 9.71255 4.82328ZM15.9778 9.02855C16.3083 8.10645 16.9631 7.2768 17.9788 6.71703C16.9524 5.43609 15.5111 4.69242 14.1511 4.69242C12.3517 4.69242 11.5909 5.54973 10.341 5.54973C9.05352 5.54973 8.07677 4.69242 6.51813 4.69242C4.98973 4.69242 3.36282 5.62398 2.33102 7.21496C1.95165 7.80305 1.69466 8.53363 1.5545 9.34738C1.16559 11.6302 1.74653 14.6035 3.47946 17.2436C4.32204 18.5247 5.44512 19.9677 6.91231 19.9803C8.2193 19.9931 8.59009 19.1447 10.3594 19.1359C12.1314 19.1259 12.4672 19.9891 13.7724 19.9766C15.24 19.9643 16.425 18.3673 17.2675 17.0864C17.8675 16.1671 18.0944 15.7029 18.5609 14.6636C16.1888 13.769 15.2131 11.1551 15.9778 9.02855Z" fill="black"/>
</svg>
