<svg width="81" height="82" viewBox="0 0 81 82" fill="none" xmlns="http://www.w3.org/2000/svg">
<rect width="81" height="82" rx="16" fill="#E3E3E3"/>
<path d="M63.9619 55.5993C63.6243 52.7566 60.9797 50.6614 57.6481 50.6495C52.5661 50.6314 47.4835 50.6703 42.4015 50.634C39.4022 50.6124 37.8531 48.9182 38.3832 46.1805C38.835 46.1805 39.3183 46.18 39.8016 46.1805C43.3391 46.1847 46.8769 46.1924 50.4144 46.1917C52.397 46.1915 54.1596 45.6661 55.456 44.2137C57.1287 42.34 57.4709 40.2434 56.3502 38.0461C55.2521 35.8933 53.2848 34.8153 50.7378 34.7816C46.6122 34.7268 42.4854 34.7668 38.267 34.7668C38.0087 31.8332 39.3941 30.3909 42.3687 30.3754C47.4009 30.3494 52.4336 30.3885 57.4658 30.3792C60.4147 30.3738 62.8237 28.8239 63.6568 26.4475C64.9339 22.8053 61.8578 19.0292 57.525 19.0178C46.9621 18.9899 36.3989 19.0014 25.8359 19.0086C20.8251 19.0121 17.0399 22.447 17.0229 27.0849C16.9906 35.9882 16.9924 44.8917 17.029 53.7947C17.0491 58.6892 20.6646 61.9863 25.9587 61.9933C36.422 62.0069 46.8856 61.9973 57.3489 61.987C57.9415 61.9863 58.5522 61.9621 59.1235 61.8323C62.2921 61.1117 64.3057 58.4945 63.9619 55.5993ZM21.0106 26.186C21.1655 23.9699 23.3362 22.5478 25.8509 22.5419C36.2631 22.5178 46.6753 22.5035 57.0872 22.4915C58.9526 22.4894 60.0669 23.3272 60.0776 24.701C60.0881 26.0367 58.9475 26.9127 57.0783 26.9169C49.207 26.9347 41.3306 27.0868 33.4657 26.8836C28.0544 26.744 25.2331 29.8798 25.5733 33.9195C25.5956 34.185 25.5255 34.457 25.5061 34.6506C23.3392 34.6379 22.1141 35.0647 20.9496 36.2455C20.9496 32.9116 20.7767 29.5367 21.0106 26.186ZM34.1481 34.6379H29.5715C28.8436 31.2268 31.0496 30.0804 34.8958 30.5444C33.5211 32.1442 33.6475 33.4293 34.1481 34.6379ZM57.5258 58.4675C46.8675 58.4872 36.2092 58.5045 25.5511 58.4607C22.8193 58.4495 20.9229 56.5849 20.8929 54.0365C20.8512 50.5046 20.8406 46.9714 20.8967 43.44C20.9453 40.3819 23.2866 38.3008 26.6101 38.291C34.4793 38.2678 42.3486 38.2617 50.2179 38.2553C52.0812 38.2539 53.1587 39.1029 53.1216 40.5073C53.0875 41.7917 51.9427 42.6606 50.2136 42.662C42.7925 42.6681 35.3715 42.662 27.9504 42.6606C27.2596 42.6606 26.5689 42.6606 25.7029 42.6606C25.7029 44.8692 25.5445 46.8924 25.7395 48.8861C26.0411 51.9695 28.8466 54.0817 32.4843 54.0916C39.6064 54.1108 46.7284 54.0775 53.8505 54.0644C55.0955 54.0621 56.3428 54.0072 57.585 54.0583C59.2048 54.1251 60.2101 55.0697 60.1562 56.3681C60.1061 57.5747 59.0759 58.4642 57.5261 58.467L57.5258 58.4675ZM34.9662 50.5796C30.4239 51.0115 29.4334 50.485 29.6376 46.1742H34.1069C33.6477 48.1487 34.0278 49.6674 34.9662 50.5796Z" fill="black"/>
</svg>
