<svg width="24" height="24" viewBox="0 0 24 24" fill="none" xmlns="http://www.w3.org/2000/svg">
<path d="M8 11C9.10457 11 10 10.1046 10 9C10 7.89543 9.10457 7 8 7C6.89543 7 6 7.89543 6 9C6 10.1046 6.89543 11 8 11Z" stroke="#110C0C" stroke-width="1.5" stroke-linecap="round" stroke-linejoin="round"/>
<path d="M6.56055 21.0001C12.1305 8.90009 16.7605 6.7801 22.0005 14.6301" stroke="#110C0C" stroke-width="1.5" stroke-linecap="round" stroke-linejoin="round"/>
<path d="M6 3H18C20.2091 3 22 4.79086 22 7V17C22 19.2091 20.2091 21 18 21H6C3.79086 21 2 19.2091 2 17V7" stroke="#110C0C" stroke-width="1.5" stroke-linecap="round" stroke-linejoin="round"/>
<path d="M3 1L3.81027 3.18973L6 4L3.81027 4.81027L3 7L2.18973 4.81027L0 4L2.18973 3.18973L3 1Z" fill="#110C0C"/>
</svg>
