<svg width="24" height="24" viewBox="0 0 24 24" fill="none" xmlns="http://www.w3.org/2000/svg">
<path d="M6 3H18C20.2091 3 22 4.79086 22 7V17C22 19.2091 20.2091 21 18 21H6C3.79086 21 2 19.2091 2 17V7" stroke="#110C0C" stroke-width="1.5" stroke-linecap="round" stroke-linejoin="round"/>
<path d="M3 1L3.81027 3.18973L6 4L3.81027 4.81027L3 7L2.18973 4.81027L0 4L2.18973 3.18973L3 1Z" fill="#110C0C"/>
<path fill-rule="evenodd" clip-rule="evenodd" d="M8 10.4506V13.5194C8 15.6262 10.2299 16.4393 11.6609 15.7055L14.6534 14.1711C16.4489 13.2505 16.4488 10.7195 14.6534 9.79895L11.6609 8.26453C10.2299 7.53077 8 8.34384 8 10.4506ZM10 13.5194C10 13.8739 10.4126 14.098 10.7484 13.9258L13.7409 12.3914C14.0864 12.2143 14.0864 11.7557 13.7409 11.5786L10.7484 10.0442C10.4126 9.87206 10 10.0961 10 10.4506V13.5194Z" fill="#110C0C"/>
</svg>
