<svg width="18" height="16" viewBox="0 0 18 16" fill="none" xmlns="http://www.w3.org/2000/svg">
<path d="M14.0215 0.5C14.032 0.511187 14.0441 0.522315 14.0557 0.535156C14.0954 0.579101 14.1339 0.624463 14.1631 0.65918C14.1732 0.67124 14.1823 0.681807 14.1895 0.69043L16.6895 4.71484H16.6904L16.6953 4.76562L16.6943 4.77832C16.6931 4.78674 16.6916 4.79284 16.6904 4.79785C16.6901 4.79934 16.6897 4.80084 16.6895 4.80176C16.6777 4.83202 16.6705 4.847 16.667 4.85352C16.6646 4.85785 16.6631 4.85972 16.6611 4.8623L8.80176 14.8164L8.80078 14.8184C8.80034 14.8188 8.79941 14.8198 8.79785 14.8213C8.79259 14.8262 8.78315 14.832 8.77246 14.8398L8.76074 14.8486L8.70117 14.8789L8.67969 14.8857C8.631 14.8978 8.61122 14.9004 8.59766 14.9004C8.58289 14.9004 8.56059 14.8972 8.52148 14.8877L8.50977 14.8838C8.47147 14.8695 8.45835 14.8625 8.4502 14.8574L8.44922 14.8564L8.4248 14.8408C8.40248 14.8249 8.39092 14.8136 8.38477 14.8057L8.375 14.791L8.36621 14.7803L0.52832 4.85156L0.511719 4.81836L0.507812 4.80957L0.5 4.76465C0.499911 4.74973 0.500653 4.74278 0.500977 4.74023C0.501239 4.73819 0.501389 4.73403 0.503906 4.72461L0.509766 4.70996C0.517586 4.68853 0.522693 4.67616 0.526367 4.66992L0.532227 4.66504L0.550781 4.64062L3.64844 0.5H14.0215ZM5.99023 5.75098L8.12109 12.501L8.59766 14.0107L9.0752 12.501L11.207 5.75098L11.4131 5.09961H5.78418L5.99023 5.75098ZM1.84766 5.91016L6.27344 11.5166L7.14258 11.0557L5.37207 5.44922L5.26172 5.09961H1.20801L1.84766 5.91016ZM11.8242 5.44922L10.0537 11.0557L10.9229 11.5156L15.3486 5.91016L15.9883 5.09961H11.9346L11.8242 5.44922ZM3.26172 2.0918L1.7793 4.10352L1.19238 4.90039H5.12207L4.87402 4.22754L4.13281 2.21582L3.8125 1.34473L3.26172 2.0918ZM8.19531 1.78516L6.4873 4.10352L5.90039 4.90039H11.2959L10.709 4.10352L9.00098 1.78516L8.59766 1.23828L8.19531 1.78516ZM13.6543 2.13281L12.5352 4.1582L12.125 4.90039H16.0576L15.6475 4.1582L14.5293 2.13281L14.0918 1.34082L13.6543 2.13281ZM9.62598 1.89648L11.2422 4.08984L11.7051 4.71777L12.082 4.03418L13.2939 1.8418L13.7031 1.09961H9.03809L9.62598 1.89648ZM4.47656 1.77246L5.2168 3.78418L5.53809 4.65527L6.08887 3.9082L7.57129 1.89648L8.1582 1.09961H4.22852L4.47656 1.77246Z" fill="white" stroke="white"/>
</svg>
