<svg width="22" height="22" viewBox="0 0 22 22" fill="none" xmlns="http://www.w3.org/2000/svg">
<path d="M16.75 12.75H17.55C17.9703 12.75 18.3864 12.6673 18.7746 12.5065C19.1628 12.3457 19.5156 12.1099 19.8127 11.8127C20.1099 11.5156 20.3457 11.1629 20.5065 10.7747C20.6673 10.3864 20.75 9.9703 20.75 9.55V3.95007C20.75 3.52984 20.6673 3.11371 20.5065 2.72546C20.3457 2.33722 20.1099 1.9844 19.8127 1.68726C19.5156 1.39011 19.1628 1.15447 18.7746 0.99365C18.3864 0.83284 17.9703 0.75 17.55 0.75H7.95001C7.52978 0.75 7.11371 0.83284 6.72546 0.99365C6.33722 1.15447 5.98446 1.39011 5.68732 1.68726C5.39017 1.9844 5.15441 2.33722 4.99359 2.72546C4.83278 3.11371 4.75 3.52984 4.75 3.95007V6.3501" stroke="black" stroke-width="1.5" stroke-linecap="round" stroke-linejoin="round"/>
<path d="M5.55005 18.3501L7.38 20.1901C7.75092 20.5388 8.24088 20.7329 8.75 20.7329C9.2591 20.7329 9.7491 20.5388 10.1201 20.1901L11.95 18.3501H13.55C14.3987 18.3501 15.2126 18.013 15.8127 17.4128C16.4129 16.8127 16.75 15.9987 16.75 15.15V9.55C16.75 8.70136 16.4129 7.88747 15.8127 7.28735C15.2126 6.68724 14.3987 6.3501 13.55 6.3501H3.95001C3.10132 6.3501 2.28743 6.68724 1.68732 7.28735C1.0872 7.88747 0.75 8.70136 0.75 9.55V15.15C0.75 15.9987 1.0872 16.8127 1.68732 17.4128C2.28743 18.013 3.10132 18.3501 3.95001 18.3501H5.55005Z" stroke="black" stroke-width="1.5" stroke-linecap="round" stroke-linejoin="round"/>
</svg>
