<svg width="11" height="17" viewBox="0 0 11 17" fill="none" xmlns="http://www.w3.org/2000/svg">
<path d="M1.59378 15.018C1.0876 14.53 0.68544 13.9446 0.411537 13.297C0.137634 12.6494 -0.00234645 11.9531 2.97526e-05 11.25V3.75C2.97526e-05 2.75544 0.395118 1.80161 1.09838 1.09835C1.80164 0.395088 2.75547 0 3.75003 0C4.74459 0 5.69842 0.395088 6.40168 1.09835C7.10494 1.80161 7.50003 2.75544 7.50003 3.75V11.25C7.50003 11.8467 7.26298 12.419 6.84102 12.841C6.41906 13.2629 5.84677 13.5 5.25003 13.5C4.65329 13.5 4.081 13.2629 3.65904 12.841C3.23708 12.419 3.00003 11.8467 3.00003 11.25V5.25C3.00003 5.05109 3.07905 4.86032 3.2197 4.71967C3.36035 4.57902 3.55112 4.5 3.75003 4.5C3.94894 4.5 4.13971 4.57902 4.28036 4.71967C4.42101 4.86032 4.50003 5.05109 4.50003 5.25V11.25C4.50003 11.4489 4.57905 11.6397 4.7197 11.7803C4.86035 11.921 5.05112 12 5.25003 12C5.44894 12 5.63971 11.921 5.78036 11.7803C5.92101 11.6397 6.00003 11.4489 6.00003 11.25V3.75C6.00003 3.15326 5.76298 2.58097 5.34102 2.15901C4.91906 1.73705 4.34677 1.5 3.75003 1.5C3.15329 1.5 2.581 1.73705 2.15904 2.15901C1.73708 2.58097 1.50003 3.15326 1.50003 3.75V11.25C1.49979 11.7523 1.60048 12.2496 1.79612 12.7123C1.99175 13.1749 2.27835 13.5936 2.63889 13.9433C2.99944 14.2931 3.42658 14.5669 3.89497 14.7484C4.36336 14.9299 4.86344 15.0155 5.36553 15C6.36174 14.9374 7.29545 14.4931 7.97241 13.7596C8.64937 13.0261 9.01744 12.0598 9.00003 11.0617V2.25C9.00003 2.05109 9.07905 1.86032 9.2197 1.71967C9.36035 1.57902 9.55112 1.5 9.75003 1.5C9.94894 1.5 10.1397 1.57902 10.2804 1.71967C10.421 1.86032 10.5 2.05109 10.5 2.25V11.0617C10.5153 12.4491 9.99473 13.7888 9.04677 14.8019C8.09882 15.8149 6.79656 16.4232 5.41128 16.5H5.25003C3.88409 16.5046 2.57102 15.9724 1.59378 15.018Z" fill="#7C7C7C"/>
</svg>
