<svg width="12" height="12" viewBox="0 0 12 12" fill="none" xmlns="http://www.w3.org/2000/svg">
<path fill-rule="evenodd" clip-rule="evenodd" d="M6 0C6.41422 0 6.75 0.33579 6.75 0.75V5.25H11.25C11.6642 5.25 12 5.58577 12 6C12 6.41422 11.6642 6.75 11.25 6.75H6.75V11.25C6.75 11.6642 6.41422 12 6 12C5.58577 12 5.25 11.6642 5.25 11.25V6.75H0.75C0.33579 6.75 0 6.41422 0 6C0 5.58577 0.33579 5.25 0.75 5.25H5.25V0.75C5.25 0.33579 5.58577 0 6 0Z" fill="url(#paint0_linear_1576_5285)"/>
<defs>
<linearGradient id="paint0_linear_1576_5285" x1="0" y1="6" x2="12" y2="6" gradientUnits="userSpaceOnUse">
<stop stop-color="#160D0D"/>
<stop offset="1" stop-color="#9E1518"/>
</linearGradient>
</defs>
</svg>
