<svg width="40" height="40" viewBox="0 0 40 40" fill="none" xmlns="http://www.w3.org/2000/svg">
<path d="M31.9993 4H15.9993C13.0538 4 10.666 6.38781 10.666 9.33333V22.6667C10.666 25.6121 13.0538 28 15.9993 28H31.9993C34.9448 28 37.3327 25.6121 37.3327 22.6667V9.33333C37.3327 6.38781 34.9448 4 31.9993 4Z" stroke="#BDBDBD" stroke-width="1.2" stroke-linecap="round" stroke-linejoin="round"/>
<g clip-path="url(#clip0_1848_1704)">
<rect width="28.8" height="27.2" transform="translate(0 8.7998)" fill="#F8F8F8"/>
<path d="M9.06803 20.265C10.5408 20.265 11.7347 19.0711 11.7347 17.5983C11.7347 16.1255 10.5408 14.9316 9.06803 14.9316C7.59527 14.9316 6.40137 16.1255 6.40137 17.5983C6.40137 19.0711 7.59527 20.265 9.06803 20.265Z" stroke="#BDBDBD" stroke-width="1.2" stroke-linecap="round" stroke-linejoin="round"/>
<path d="M7.14941 33.5991C14.576 17.4658 20.7493 14.6391 27.736 25.1058" stroke="#BDBDBD" stroke-width="1.2" stroke-linecap="round" stroke-linejoin="round"/>
<path d="M22.4017 9.59863H6.40169C3.45617 9.59863 1.06836 11.9864 1.06836 14.932V28.2653C1.06836 31.2108 3.45617 33.5986 6.40169 33.5986H22.4017C25.3472 33.5986 27.735 31.2108 27.735 28.2653V14.932C27.735 11.9864 25.3472 9.59863 22.4017 9.59863Z" stroke="#BDBDBD" stroke-width="1.2" stroke-linecap="round" stroke-linejoin="round"/>
</g>
<rect width="14.7368" height="14.7368" transform="translate(6.87891 25.2627)" fill="#F8F8F8"/>
<circle cx="14.3158" cy="32.3168" r="6.05263" fill="#F8F8F8" stroke="#B3B2B2" stroke-width="0.526316"/>
<path fill-rule="evenodd" clip-rule="evenodd" d="M14.4986 29.9854C14.6722 29.9854 14.8129 30.1261 14.8129 30.2996V32.1853H16.6986C16.8722 32.1853 17.0129 32.326 17.0129 32.4996C17.0129 32.6732 16.8722 32.8139 16.6986 32.8139H14.8129V34.6996C14.8129 34.8732 14.6722 35.0139 14.4986 35.0139C14.3251 35.0139 14.1844 34.8732 14.1844 34.6996V32.8139H12.2987C12.1251 32.8139 11.9844 32.6732 11.9844 32.4996C11.9844 32.326 12.1251 32.1853 12.2987 32.1853H14.1844V30.2996C14.1844 30.1261 14.3251 29.9854 14.4986 29.9854Z" fill="#8A8A8A"/>
<defs>
<clipPath id="clip0_1848_1704">
<rect width="28.8" height="27.2" fill="white" transform="translate(0 8.7998)"/>
</clipPath>
</defs>
</svg>
