<svg width="36" height="35" viewBox="0 0 36 35" fill="none" xmlns="http://www.w3.org/2000/svg">
<mask id="mask0_1576_6653" style="mask-type:luminance" maskUnits="userSpaceOnUse" x="0" y="0" width="36" height="35">
<path d="M35.0629 0H0V34.3886H35.0629V0Z" fill="white"/>
</mask>
<g mask="url(#mask0_1576_6653)">
<mask id="mask1_1576_6653" style="mask-type:luminance" maskUnits="userSpaceOnUse" x="2" y="2" width="31" height="30">
<path d="M32.5653 2.11133H2.15234V31.9394H32.5653V2.11133Z" fill="white"/>
</mask>
<g mask="url(#mask1_1576_6653)">
<mask id="mask2_1576_6653" style="mask-type:luminance" maskUnits="userSpaceOnUse" x="2" y="2" width="31" height="31">
<path d="M32.5653 2.11133H2.15234V32.1117H32.5653V2.11133Z" fill="white"/>
</mask>
<g mask="url(#mask2_1576_6653)">
<path d="M27.4915 17.9049C28.8319 18.2349 30.2381 18.2794 31.5333 18.7961C31.8492 18.9224 32.3438 18.8894 32.3395 19.3774C32.335 19.8279 31.9254 19.9929 31.5638 20.1437C30.0464 20.7766 28.4384 20.7967 26.8286 20.7967C26.0736 20.7967 25.3186 20.7881 24.5635 20.7866C24.426 20.7866 24.2431 20.7277 24.1714 20.8756C24.0631 21.0995 24.3132 21.1453 24.4274 21.2315C26.2873 22.6208 27.7272 24.3989 29.1889 26.1556C29.4523 26.4727 29.6704 26.8242 29.786 27.2176C29.9587 27.8074 29.5988 28.1734 28.9943 28.0026C27.8252 27.671 26.8551 26.975 25.8981 26.2761C24.2548 25.0777 22.7023 23.7717 21.2637 22.3394C21.1644 22.2404 21.0765 22.1098 20.8278 22.1457C21.0296 23.278 21.255 24.409 21.4291 25.5471C21.6354 26.8932 21.8037 28.2437 21.9736 29.594C22.0394 30.1179 22.0071 30.6446 21.9165 31.1656C21.8345 31.6335 21.5682 31.9722 21.1073 32.087C20.6624 32.1975 20.3653 31.886 20.14 31.5718C19.4479 30.6087 18.965 29.544 18.6196 28.4159C18.0036 26.4024 17.6056 24.3416 17.1973 22.0769C16.6822 23.1489 16.1628 24.0502 15.8072 25.0102C15.1224 26.863 14.2225 28.5968 13.1031 30.2256C12.9274 30.4811 12.7124 30.7121 12.5338 30.9662C12.2631 31.3494 11.8841 31.3609 11.4905 31.2546C11.1027 31.1497 11.0105 30.8169 10.9549 30.4753C10.8174 29.6271 10.9593 28.802 11.2374 28.0055C11.89 26.1368 12.5763 24.2783 13.2435 22.4141C13.4074 21.9577 13.7557 21.5702 13.8508 20.9459C12.8836 21.408 12.2031 22.0595 11.4217 22.562C9.73748 23.6483 8.13519 24.8624 6.30462 25.7192C5.91244 25.903 5.46028 26.1267 5.09886 25.7106C4.72572 25.2829 5.01107 24.8438 5.24665 24.4635C5.94025 23.347 6.97626 22.5346 7.92008 21.6434C8.81122 20.8009 9.72285 19.9786 10.6842 19.0932C9.83991 18.8277 9.01022 18.8937 8.21127 18.8277C6.45387 18.6827 4.74913 18.3153 3.05318 17.8761C2.80443 17.8116 2.60835 17.6924 2.44153 17.5116C1.99668 17.0308 2.05083 16.6993 2.67857 16.5156C3.89165 16.1626 5.12228 15.8497 6.40117 15.8684C7.71521 15.887 9.03217 15.8368 10.3433 15.9631C10.5364 15.9817 10.813 16.1181 10.9271 15.8784C11.0296 15.6617 10.7501 15.5785 10.6257 15.4479C8.77756 13.509 6.9704 11.5385 5.63589 9.20498C5.50565 8.9768 5.35348 8.75004 5.27445 8.50319C5.16616 8.1688 5.01691 7.78993 5.37395 7.50863C5.72076 7.23595 6.13633 7.27326 6.47142 7.49715C7.5323 8.20899 8.67952 8.8218 9.47116 9.86228C9.57358 9.99718 9.64969 10.1522 9.91161 10.1149C9.83552 9.49774 9.5414 8.961 9.26045 8.43286C8.90634 7.7684 8.71902 7.05226 8.50832 6.3433C8.41466 6.02899 8.39711 5.67452 8.71318 5.41905C9.05413 5.14495 9.38191 5.26119 9.7331 5.41762C11.6529 6.27154 12.7211 7.95066 13.883 9.53219C14.42 10.2641 14.8839 11.0463 15.4619 11.9303C15.4926 11.4008 15.5175 10.9917 15.5394 10.5827C15.6726 8.07983 15.8189 5.5798 16.7759 3.2118C16.9895 2.68367 17.1798 2.00627 17.9202 2.11822C18.6401 2.22729 18.886 2.88603 18.9723 3.51893C19.2035 5.22819 19.0674 6.94462 19.0016 8.65675C18.943 8.8017 18.8684 9.00836 19.0733 9.03275C19.205 9.04855 19.2679 8.81748 19.2737 8.65389C20.1298 6.7236 21.0721 4.84356 22.5515 3.28212C22.8836 2.93195 23.1735 2.31626 23.7631 2.56742C24.4114 2.84153 24.2078 3.51461 24.1362 4.03988C23.7822 6.64036 22.8764 9.07295 21.7203 11.4251C21.6603 11.5457 21.6091 11.6706 21.517 11.8758C22.0495 11.6935 22.3803 11.3577 22.7124 11.0377C24.0499 9.74746 25.4752 8.55773 26.978 7.45841C27.114 7.35939 27.2472 7.24743 27.398 7.17711C27.6189 7.07379 27.8676 6.98912 28.093 7.14555C28.346 7.32062 28.2467 7.58326 28.1764 7.80141C27.8281 8.88351 27.1973 9.81779 26.5302 10.7291C25.4853 12.1571 24.129 13.3152 22.8398 14.7045C24.126 14.7045 25.279 14.7045 26.4306 14.7045C28.1588 14.703 29.8855 14.7203 31.5814 15.1207C32.0043 15.2211 32.5458 15.1924 32.5633 15.765C32.5779 16.286 32.1243 16.5458 31.6809 16.7036C30.5805 17.0926 29.4451 17.3552 28.2831 17.5001C28.1164 17.5217 27.951 17.5647 27.7856 17.5977C27.0438 17.5762 26.3034 17.5805 25.5702 17.7125C25.3289 17.6193 25.1078 17.6494 24.7449 17.836H25.5219C26.1776 17.8575 26.8346 17.879 27.4901 17.9005L27.4915 17.9049ZM6.03975 24.8266C6.34412 24.7993 6.58116 24.6241 6.82994 24.4778C9.53848 22.8776 12.288 21.3406 14.7902 19.4261C14.9892 19.274 15.238 18.9238 15.5292 19.1777C15.7633 19.3816 15.5102 19.6701 15.4077 19.8953C14.2766 22.3797 13.324 24.9342 12.3509 27.4801C12.0231 28.3383 11.8475 29.2425 11.9778 30.2056C12.5821 29.4909 13.2026 28.7861 13.6298 27.9824C14.8561 25.682 16.1394 23.4043 16.9676 20.9186C17.0642 20.6288 17.0803 20.1637 17.5149 20.1666C17.9421 20.1681 17.9217 20.636 17.9451 20.8928C18.1338 22.9465 18.8143 24.9012 19.1874 26.9161C19.4303 28.2307 19.8503 29.5052 20.4179 30.725C20.5336 30.9732 20.6815 31.3523 20.9873 31.2877C21.2974 31.2216 21.2404 30.8211 21.2667 30.5441C21.359 29.5854 21.2579 28.6239 21.0999 27.6897C20.7195 25.4336 20.2395 23.1934 19.7991 20.9474C19.7683 20.791 19.6382 20.61 19.8328 20.4967C20.0112 20.3934 20.1561 20.5441 20.2804 20.6517C20.8103 21.1081 21.3428 21.5616 21.8579 22.0337C23.867 23.8766 25.8673 25.7307 28.2525 27.1185C28.5071 27.2663 28.75 27.4587 29.1422 27.3767C29.0235 27.1788 28.9548 27.0266 28.8525 26.8989C27.3409 25.016 25.6902 23.2681 23.7222 21.8285C23.2904 21.5143 22.9115 21.1612 22.6248 20.6977C22.3291 20.2212 22.4769 20.0346 22.9816 20.0073C23.7836 19.9643 24.5856 19.914 25.3889 19.9039C26.9472 19.8867 28.5071 19.9156 30.048 19.6284C30.2879 19.5839 30.6756 19.6514 30.6917 19.3113C30.7064 18.9826 30.3288 19.0731 30.1181 19.03C28.4456 18.6884 26.7556 18.5105 25.0464 18.4559C23.8553 18.4172 22.6657 18.3096 21.4965 18.057C21.2507 18.0039 21.0779 17.9005 21.0736 17.6494C21.0691 17.3782 21.2783 17.2935 21.5111 17.259C21.7994 17.2174 22.0891 17.1844 22.3787 17.1485C25.0084 16.8242 27.6876 16.9419 30.285 16.3305C30.7313 16.2257 31.2126 16.1927 31.8155 15.8253C30.778 15.6832 29.95 15.5483 29.1159 15.4579C26.6589 15.191 24.2049 15.5655 21.7495 15.5239C21.5579 15.5211 21.3457 15.6057 21.2374 15.3761C21.1379 15.1666 21.2741 15.0245 21.4116 14.8753C21.8828 14.36 22.3248 13.819 22.8077 13.3167C23.927 12.1528 25.0655 11.0075 26.0722 9.74746C26.2697 9.49918 26.574 9.24659 26.4057 8.73424C25.6931 9.34706 25.0303 9.86658 24.4274 10.4464C23.0373 11.7825 21.577 13.0526 20.342 14.538C20.1854 14.726 20.0024 14.825 19.7712 14.726C19.5196 14.6169 19.5182 14.3959 19.5928 14.1763C19.6542 13.9955 19.7362 13.8219 19.8137 13.6482C20.7107 11.639 21.6266 9.63696 22.5018 7.6177C23.0769 6.29019 23.5157 4.18053 23.4353 3.44429C23.2744 3.46868 23.2056 3.59928 23.1119 3.70837C21.454 5.64437 20.5175 7.95209 19.6146 10.2713C19.164 11.4295 18.7674 12.6077 18.3489 13.7774C18.2304 14.1074 18.046 14.3543 17.6524 14.2036C17.2954 14.0673 17.2354 13.7845 17.351 13.4358C17.4402 13.166 17.509 12.8847 17.55 12.6034C17.8968 10.2383 18.1104 7.86169 18.1455 5.47359C18.1572 4.68569 18.3182 3.85905 17.8587 3.11278C17.588 3.2161 17.5763 3.42134 17.509 3.59355C16.8593 5.24397 16.7203 6.98193 16.6252 8.71989C16.5345 10.3861 16.5257 12.0552 16.4774 13.7228C16.4686 14.0299 16.3793 14.3041 16.0091 14.3428C15.7282 14.373 15.4911 14.3141 15.3594 14.0084C14.5561 12.1413 13.223 10.5985 12.0626 8.9567C11.3471 7.94348 10.636 6.85563 9.33216 6.29019C9.4419 6.93601 9.63066 7.48853 9.88381 8.03103C11.0281 10.4722 12.5543 12.6867 14.0908 14.8968C14.2942 15.1881 14.5034 15.5081 14.1259 15.7708C13.7381 16.0406 13.5962 15.6445 13.3986 15.4177C11.3793 13.1014 9.39946 10.7478 6.96748 8.81605C6.72311 8.62231 6.50216 8.48309 6.16851 8.58786C7.49572 10.8166 9.18289 12.734 11.1276 14.4533C11.6822 14.9441 12.2777 15.4149 12.705 16.0363C12.847 16.2415 12.9406 16.451 12.7914 16.7008C12.648 16.939 12.4314 16.8916 12.2119 16.8816C10.6067 16.8113 9.00146 16.7653 7.39768 16.6677C5.84221 16.573 4.32331 16.7768 2.79418 17.1342C3.5785 17.3782 4.36868 17.5647 5.17057 17.6623C7.27184 17.9178 9.398 17.9278 11.489 18.2794C11.7363 18.321 12.0787 18.2392 12.1534 18.5851C12.2119 18.852 11.969 19.0156 11.7934 19.172C10.8408 20.0245 9.86186 20.8498 8.92389 21.7166C7.88496 22.6768 6.67044 23.4746 5.95196 24.739C5.93001 24.785 5.90952 24.8295 5.88756 24.8754C5.93879 24.8595 5.99 24.8438 6.04121 24.828L6.03975 24.8266ZM24.0748 20.7996C24.0469 20.8139 24.0177 20.8297 23.9885 20.8454C24.0031 20.8597 24.022 20.8871 24.0339 20.8842C24.0645 20.8771 24.0939 20.8584 24.1231 20.8441C24.1085 20.8297 24.0923 20.8167 24.0748 20.7996ZM13.8669 20.9545C13.8479 20.936 13.8318 20.9201 13.8142 20.9029C13.7981 20.9344 13.7762 20.966 13.7688 20.999C13.7659 21.0105 13.7981 21.0305 13.8142 21.0464C13.8318 21.0149 13.8493 20.9847 13.8669 20.9545Z" fill="#D87756"/>
<path d="M5.95075 24.739C6.67069 23.4762 7.88375 22.6782 8.9227 21.7166C9.86065 20.8499 10.8396 20.0245 11.7922 19.1721C11.9663 19.0157 12.2092 18.8521 12.1522 18.5851C12.0775 18.2407 11.7351 18.3211 11.4878 18.2795C9.39679 17.9278 7.27063 17.9178 5.16935 17.6623C4.36747 17.5647 3.57729 17.3782 2.79297 17.1342C4.32212 16.7768 5.841 16.5731 7.39647 16.6678C8.99878 16.7654 10.6055 16.8099 12.2107 16.8816C12.4302 16.8917 12.6468 16.939 12.7901 16.7008C12.9394 16.4511 12.8443 16.2415 12.7038 16.0363C12.2765 15.4149 11.6825 14.9456 11.1264 14.4533C9.18316 12.734 7.49451 10.8167 6.16732 8.58789C6.50094 8.48312 6.7219 8.62234 6.96627 8.81608C9.39827 10.7478 11.3781 13.1014 13.3974 15.4178C13.595 15.6445 13.7369 16.0406 14.1247 15.7708C14.5037 15.5082 14.293 15.1881 14.0896 14.8968C12.5531 12.6867 11.0269 10.4722 9.8826 8.03105C9.62799 7.48857 9.43923 6.93604 9.33095 6.29022C10.6362 6.85566 11.3474 7.94351 12.0614 8.95673C13.2204 10.5985 14.5534 12.1413 15.3582 14.0084C15.4899 14.3127 15.7255 14.3715 16.0079 14.3428C16.3796 14.3041 16.4674 14.03 16.4762 13.7229C16.5245 12.0552 16.5332 10.3847 16.624 8.71993C16.7176 6.98197 16.8581 5.24255 17.5078 3.59358C17.5751 3.42279 17.5853 3.21756 17.8575 3.11279C18.317 3.85908 18.156 4.68429 18.1443 5.47363C18.1092 7.8617 17.8956 10.2383 17.5488 12.6034C17.5078 12.8847 17.439 13.1646 17.3498 13.4358C17.2356 13.7846 17.2956 14.0673 17.6512 14.2036C18.0448 14.3543 18.2292 14.1075 18.3477 13.7774C18.7662 12.6077 19.1628 11.4295 19.6134 10.2713C20.5179 7.95069 21.4542 5.6444 23.1108 3.70838C23.2045 3.59931 23.2732 3.47015 23.4355 3.44575C23.5161 4.18199 23.0771 6.29165 22.502 7.61917C21.6284 9.63843 20.7125 11.6405 19.8139 13.6497C19.7364 13.8247 19.6543 13.9984 19.593 14.1778C19.5184 14.3974 19.5197 14.6198 19.7714 14.7275C20.0026 14.8265 20.1856 14.7275 20.3422 14.5394C21.5772 13.0541 23.0375 11.784 24.4278 10.4478C25.0307 9.86948 25.692 9.34996 26.4061 8.73571C26.5744 9.24806 26.2699 9.50064 26.0724 9.74893C25.0657 11.0104 23.9273 12.1557 22.8079 13.3181C22.3234 13.8204 21.883 14.3615 21.4118 14.8767C21.2743 15.026 21.1397 15.1681 21.2376 15.3776C21.3459 15.6072 21.5583 15.5211 21.7499 15.5254C24.2067 15.567 26.6591 15.1924 29.1161 15.4594C29.9502 15.5498 30.7784 15.6847 31.8159 15.8268C31.2115 16.1956 30.7315 16.2272 30.2852 16.332C27.6878 16.9433 25.0086 16.8256 22.3791 17.15C22.0893 17.1859 21.7996 17.2189 21.5113 17.2605C21.2787 17.2935 21.068 17.3796 21.0738 17.6509C21.0783 17.9034 21.2509 18.0053 21.4967 18.0584C22.6674 18.311 23.857 18.4187 25.0466 18.4574C26.7557 18.5134 28.446 18.6899 30.1185 19.0315C30.329 19.0745 30.7067 18.9841 30.6919 19.3127C30.676 19.6514 30.2881 19.584 30.0482 19.6298C28.5089 19.917 26.9474 19.8883 25.3891 19.9055C24.5871 19.9141 23.7838 19.9644 22.982 20.0089C22.4771 20.036 22.3293 20.2227 22.625 20.6991C22.9117 21.1626 23.2921 21.5143 23.7224 21.8299C25.692 23.268 27.3425 25.016 28.8527 26.9003C28.9552 27.0282 29.0239 27.1802 29.1424 27.3783C28.7518 27.4601 28.5073 27.2677 28.2527 27.1201C25.8661 25.7336 23.8673 23.878 21.8582 22.0353C21.343 21.563 20.8104 21.1095 20.2808 20.6531C20.1563 20.5455 20.01 20.3948 19.833 20.4981C19.6384 20.6116 19.7685 20.7924 19.7993 20.9488C20.2397 23.1948 20.7197 25.435 21.1001 27.6911C21.2583 28.6255 21.3592 29.5855 21.267 30.5457C21.2407 30.8241 21.2976 31.2245 20.9875 31.2891C20.6817 31.3537 20.5338 30.9748 20.4183 30.7265C19.8505 29.5066 19.432 28.2321 19.1877 26.9175C18.8145 24.9012 18.1356 22.948 17.9453 20.8944C17.9219 20.6374 17.9424 20.1695 17.5151 20.168C17.0805 20.1667 17.0644 20.6302 16.9679 20.9202C16.1411 23.4057 14.8578 25.6834 13.6301 27.984C13.2013 28.7875 12.5824 29.4923 11.978 30.207C11.8478 29.2439 12.0249 28.3384 12.3512 27.4817C13.3228 24.9356 14.2769 22.3811 15.408 19.8969C15.5104 19.673 15.7636 19.383 15.5294 19.1793C15.2382 18.9253 14.9895 19.2754 14.7905 19.4275C12.2882 21.342 9.53873 22.8792 6.83018 24.4792C6.58289 24.6257 6.34437 24.8007 6.04 24.8281C6.00929 24.7994 5.98147 24.7692 5.95075 24.739Z" fill="#D87756"/>
</g>
</g>
</g>
</svg>
