<svg width="18" height="18" viewBox="0 0 18 18" fill="none" xmlns="http://www.w3.org/2000/svg">
<mask id="mask0_1576_10827" style="mask-type:luminance" maskUnits="userSpaceOnUse" x="0" y="0" width="18" height="18">
<path d="M18 0H0V18H18V0Z" fill="white"/>
</mask>
<g mask="url(#mask0_1576_10827)">
<mask id="mask1_1576_10827" style="mask-type:luminance" maskUnits="userSpaceOnUse" x="1" y="1" width="16" height="16">
<path d="M16.7179 1.10498H1.10498V16.7179H16.7179V1.10498Z" fill="white"/>
</mask>
<g mask="url(#mask1_1576_10827)">
<mask id="mask2_1576_10827" style="mask-type:luminance" maskUnits="userSpaceOnUse" x="1" y="1" width="16" height="16">
<path d="M16.7179 1.10498H1.10498V16.8081H16.7179V1.10498Z" fill="white"/>
</mask>
<g mask="url(#mask2_1576_10827)">
<path d="M14.1132 9.37166C14.8013 9.54443 15.5232 9.56772 16.1881 9.83815C16.3503 9.90426 16.6042 9.88698 16.602 10.1424C16.5997 10.3782 16.3894 10.4646 16.2038 10.5435C15.4248 10.8748 14.5993 10.8853 13.7729 10.8853C13.3853 10.8853 12.9977 10.8808 12.6101 10.88C12.5395 10.88 12.4456 10.8492 12.4088 10.9266C12.3532 11.0438 12.4816 11.0678 12.5402 11.1129C13.495 11.8401 14.2342 12.7708 14.9846 13.6903C15.1198 13.8563 15.2318 14.0403 15.2911 14.2462C15.3798 14.5549 15.195 14.7465 14.8847 14.6571C14.2845 14.4835 13.7865 14.1192 13.2952 13.7534C12.4516 13.1261 11.6546 12.4425 10.9161 11.6928C10.8651 11.641 10.82 11.5726 10.6923 11.5914C10.7959 12.1841 10.9116 12.7761 11.001 13.3718C11.1069 14.0764 11.1933 14.7833 11.2805 15.4901C11.3143 15.7643 11.2977 16.04 11.2512 16.3127C11.2091 16.5576 11.0724 16.7349 10.8358 16.795C10.6074 16.8528 10.4549 16.6898 10.3392 16.5253C9.9839 16.0212 9.736 15.4639 9.55872 14.8734C9.24246 13.8195 9.03814 12.7408 8.82855 11.5554C8.56413 12.1165 8.29745 12.5883 8.11491 13.0908C7.76335 14.0606 7.30136 14.9681 6.7267 15.8207C6.63655 15.9544 6.52613 16.0753 6.43448 16.2083C6.29551 16.4089 6.10095 16.4149 5.89888 16.3593C5.69981 16.3044 5.65248 16.1302 5.62394 15.9514C5.55332 15.5074 5.62619 15.0755 5.76892 14.6586C6.10395 13.6805 6.45627 12.7077 6.79881 11.7319C6.88295 11.493 7.06173 11.2902 7.11056 10.9634C6.61402 11.2053 6.26471 11.5463 5.86357 11.8093C4.99894 12.3779 4.17638 13.0134 3.23663 13.4619C3.0353 13.5581 2.80318 13.6752 2.61764 13.4574C2.42608 13.2335 2.57257 13.0037 2.69351 12.8046C3.04958 12.2202 3.58143 11.795 4.06595 11.3285C4.52343 10.8875 4.99143 10.4571 5.48496 9.99365C5.05152 9.85468 4.62559 9.88923 4.21544 9.85468C3.31325 9.77881 2.4381 9.5865 1.56746 9.35663C1.43976 9.32283 1.3391 9.26048 1.25346 9.16583C1.02509 8.91418 1.05289 8.74065 1.37515 8.6445C1.9979 8.4597 2.62966 8.29594 3.2862 8.30571C3.96078 8.31547 4.63686 8.28918 5.30994 8.35528C5.40909 8.36505 5.55107 8.43641 5.60966 8.31096C5.66225 8.19753 5.51877 8.15396 5.45492 8.0856C4.50615 7.07073 3.57842 6.03934 2.89333 4.81789C2.82647 4.69845 2.74835 4.57976 2.70778 4.45055C2.65219 4.27552 2.57557 4.07721 2.75886 3.92997C2.9369 3.78724 3.15024 3.80677 3.32226 3.92396C3.86688 4.29656 4.45582 4.61732 4.86222 5.16194C4.9148 5.23255 4.95387 5.31368 5.08833 5.29415C5.04927 4.97113 4.89828 4.69018 4.75405 4.41374C4.57226 4.06594 4.4761 3.69109 4.36793 3.32C4.31985 3.15548 4.31084 2.96994 4.4731 2.83622C4.64813 2.69275 4.8164 2.75359 4.99669 2.83547C5.98226 3.28244 6.53063 4.16134 7.12709 4.98916C7.40278 5.37227 7.64091 5.78168 7.93763 6.24441C7.9534 5.96722 7.96618 5.75313 7.97744 5.53904C8.0458 4.22895 8.12092 2.92036 8.61221 1.68088C8.72188 1.40444 8.81954 1.04987 9.19965 1.10847C9.56923 1.16556 9.69544 1.51036 9.73976 1.84164C9.85845 2.73632 9.78858 3.63475 9.75478 4.53093C9.72473 4.6068 9.68642 4.71497 9.79159 4.72774C9.8592 4.73601 9.8915 4.61506 9.8945 4.52943C10.334 3.51906 10.8177 2.53499 11.5772 1.71769C11.7477 1.5344 11.8965 1.21213 12.1992 1.34359C12.532 1.48707 12.4275 1.83938 12.3907 2.11432C12.209 3.47549 11.744 4.74878 11.1505 5.97999C11.1197 6.04309 11.0934 6.10845 11.0461 6.21587C11.3195 6.12047 11.4893 5.94469 11.6598 5.77717C12.3464 5.10184 13.0781 4.4791 13.8496 3.90368C13.9194 3.85185 13.9878 3.79325 14.0652 3.75644C14.1786 3.70236 14.3063 3.65804 14.422 3.73992C14.5519 3.83156 14.5009 3.96903 14.4648 4.08322C14.286 4.64962 13.9622 5.13865 13.6197 5.61566C13.0833 6.3631 12.387 6.96932 11.7252 7.69648C12.3855 7.69648 12.9774 7.69648 13.5686 7.69648C14.4558 7.69573 15.3422 7.70475 16.2128 7.91433C16.4299 7.96691 16.7079 7.95189 16.7169 8.25162C16.7244 8.5243 16.4915 8.66027 16.2639 8.7429C15.699 8.94648 15.1161 9.08395 14.5196 9.15982C14.434 9.17109 14.3491 9.19362 14.2642 9.2109C13.8834 9.19963 13.5033 9.20189 13.1269 9.271C13.003 9.22217 12.8895 9.23794 12.7032 9.3356H13.1021C13.4387 9.34687 13.776 9.35814 14.1125 9.3694L14.1132 9.37166ZM3.10066 12.9947C3.25691 12.9804 3.3786 12.8887 3.50631 12.8121C4.89678 11.9745 6.30828 11.17 7.59283 10.1679C7.69499 10.0883 7.8227 9.90501 7.97219 10.0379C8.09238 10.1446 7.96242 10.2956 7.90984 10.4135C7.32916 11.7139 6.84013 13.051 6.34058 14.3836C6.17231 14.8328 6.08217 15.3061 6.14902 15.8102C6.45927 15.4361 6.77778 15.0672 6.99713 14.6465C7.62663 13.4424 8.28544 12.2502 8.71061 10.9491C8.76019 10.7974 8.76846 10.554 8.99156 10.5555C9.21091 10.5563 9.2004 10.8012 9.21241 10.9356C9.30932 12.0106 9.65863 13.0337 9.85018 14.0884C9.97488 14.7765 10.1905 15.4436 10.4819 16.0821C10.5413 16.212 10.6172 16.4104 10.7742 16.3766C10.9334 16.342 10.9041 16.1324 10.9176 15.9874C10.965 15.4856 10.9131 14.9823 10.832 14.4933C10.6367 13.3124 10.3903 12.1398 10.1642 10.9642C10.1484 10.8823 10.0816 10.7876 10.1815 10.7283C10.2731 10.6742 10.3475 10.7531 10.4113 10.8094C10.6833 11.0483 10.9567 11.2857 11.2211 11.5328C12.2525 12.4974 13.2794 13.4679 14.5039 14.1943C14.6346 14.2717 14.7593 14.3724 14.9606 14.3295C14.8997 14.2259 14.8644 14.1462 14.8119 14.0794C14.0359 13.0938 13.1885 12.1789 12.1782 11.4254C11.9565 11.2609 11.762 11.0761 11.6148 10.8335C11.463 10.5841 11.5389 10.4864 11.798 10.4721C12.2097 10.4496 12.6214 10.4233 13.0338 10.418C13.8338 10.409 14.6346 10.4241 15.4256 10.2738C15.5488 10.2505 15.7478 10.2858 15.7561 10.1078C15.7636 9.93581 15.5698 9.98313 15.4616 9.9606C14.603 9.78181 13.7354 9.68866 12.858 9.66012C12.2465 9.63983 11.6358 9.5835 11.0356 9.45128C10.9094 9.42349 10.8207 9.3694 10.8185 9.23794C10.8162 9.09597 10.9236 9.05165 11.0431 9.03362C11.1911 9.01183 11.3398 8.99455 11.4885 8.97577C12.8385 8.806 14.2139 8.8676 15.5473 8.54759C15.7764 8.49275 16.0235 8.47548 16.333 8.28317C15.8004 8.2088 15.3753 8.13819 14.9471 8.09086C13.6858 7.95114 12.426 8.1472 11.1655 8.12542C11.0671 8.12391 10.9582 8.16824 10.9026 8.04804C10.8515 7.93837 10.9214 7.864 10.992 7.78588C11.2339 7.51619 11.4608 7.23299 11.7087 6.97007C12.2833 6.36085 12.8678 5.76139 13.3846 5.10184C13.486 4.97188 13.6422 4.83967 13.5558 4.57149C13.19 4.89226 12.8497 5.16419 12.5402 5.46768C11.8266 6.16704 11.0769 6.83185 10.4429 7.60934C10.3625 7.70775 10.2686 7.75958 10.1499 7.70775C10.0207 7.65066 10.02 7.53497 10.0583 7.42004C10.0898 7.32539 10.1319 7.2345 10.1717 7.1436C10.6322 6.09192 11.1024 5.044 11.5517 3.98706C11.8469 3.2922 12.0722 2.18794 12.0309 1.80257C11.9483 1.81534 11.913 1.8837 11.8649 1.9408C11.0138 2.95416 10.533 4.16209 10.0695 5.37603C9.83816 5.98225 9.63459 6.59898 9.41975 7.21121C9.3589 7.38398 9.26425 7.51319 9.06218 7.43431C8.87888 7.36295 8.84808 7.21496 8.90743 7.03242C8.95325 6.8912 8.98856 6.74396 9.00959 6.59673C9.18763 5.35875 9.2973 4.11477 9.31533 2.86477C9.32134 2.45236 9.40397 2.01967 9.16809 1.62905C9.02912 1.68313 9.02311 1.79056 8.98856 1.8807C8.65503 2.74458 8.58366 3.65428 8.53483 4.56398C8.48826 5.43612 8.48375 6.30977 8.45896 7.18266C8.45445 7.34342 8.40863 7.4869 8.21858 7.50718C8.07435 7.52296 7.95265 7.49216 7.88505 7.33215C7.47264 6.35484 6.7883 5.5473 6.19259 4.68793C5.82526 4.15758 5.46018 3.58817 4.79086 3.2922C4.8472 3.63024 4.9441 3.91945 5.07406 4.20341C5.6615 5.4812 6.445 6.6403 7.23376 7.79714C7.33817 7.94964 7.44559 8.11715 7.25179 8.25462C7.05272 8.39585 6.97985 8.18852 6.87844 8.06983C5.84178 6.85739 4.82541 5.62543 3.57692 4.61431C3.45147 4.5129 3.33804 4.44003 3.16676 4.49487C3.8481 5.66148 4.71423 6.66509 5.71258 7.56502C5.99728 7.82193 6.30302 8.06833 6.52237 8.3936C6.59524 8.50102 6.64331 8.61069 6.56669 8.7414C6.49307 8.8661 6.3819 8.84131 6.26922 8.83605C5.44515 8.79924 4.62109 8.7752 3.79777 8.72412C2.99925 8.67454 2.2195 8.78121 1.4345 8.96826C1.83714 9.09597 2.24279 9.19362 2.65445 9.2447C3.73317 9.37842 4.82466 9.38368 5.89812 9.56772C6.02508 9.5895 6.20086 9.54669 6.23917 9.72773C6.26922 9.86745 6.14452 9.95308 6.05437 10.0349C5.56534 10.4811 5.06279 10.9131 4.58127 11.3668C4.04792 11.8694 3.42443 12.287 3.05559 12.9488C3.04432 12.9729 3.0338 12.9962 3.02253 13.0202C3.04883 13.0119 3.07512 13.0037 3.10141 12.9954L3.10066 12.9947ZM12.3592 10.8868C12.3449 10.8943 12.3299 10.9026 12.3149 10.9108C12.3224 10.9183 12.3321 10.9326 12.3382 10.9311C12.3539 10.9274 12.369 10.9176 12.384 10.9101C12.3765 10.9026 12.3682 10.8958 12.3592 10.8868ZM7.11882 10.9679C7.10906 10.9582 7.10079 10.9499 7.09178 10.9409C7.08352 10.9574 7.07225 10.9739 7.06849 10.9912C7.06699 10.9972 7.08352 11.0077 7.09178 11.016C7.10079 10.9995 7.10981 10.9837 7.11882 10.9679Z" fill="#D87756"/>
<path d="M3.05517 12.9487C3.42476 12.2877 4.0475 11.87 4.58086 11.3667C5.06237 10.913 5.56493 10.481 6.05396 10.0348C6.14335 9.95295 6.26805 9.86731 6.23875 9.72759C6.20044 9.5473 6.02466 9.58937 5.89771 9.56759C4.82424 9.38354 3.73275 9.37828 2.65403 9.24457C2.24237 9.19349 1.83672 9.09583 1.43408 8.96813C2.21909 8.78108 2.99883 8.67441 3.79735 8.72399C4.61992 8.77507 5.44473 8.79836 6.2688 8.83592C6.38148 8.84118 6.49266 8.86597 6.56627 8.74127C6.6429 8.61056 6.59407 8.50088 6.52195 8.39346C6.3026 8.06819 5.99762 7.82255 5.71216 7.56489C4.71457 6.66495 3.84768 5.66135 3.16635 4.49474C3.33762 4.4399 3.45105 4.51277 3.5765 4.61418C4.825 5.62529 5.84137 6.85726 6.87802 8.0697C6.97943 8.18839 7.0523 8.39572 7.25137 8.25449C7.44593 8.11702 7.33776 7.9495 7.23334 7.79701C6.44458 6.64016 5.66108 5.48106 5.07364 4.20327C4.94293 3.91932 4.84603 3.63011 4.79044 3.29207C5.46051 3.58804 5.82559 4.15745 6.19218 4.6878C6.78713 5.54717 7.47147 6.35471 7.88463 7.33202C7.95224 7.49127 8.07318 7.52207 8.21816 7.50705C8.40897 7.48677 8.45404 7.34329 8.45855 7.18253C8.48334 6.30964 8.48784 5.43524 8.53442 4.56385C8.58249 3.65415 8.65461 2.74369 8.98814 1.88057C9.0227 1.79117 9.02795 1.68375 9.16768 1.62891C9.40355 2.01954 9.32092 2.45148 9.31491 2.86464C9.29688 4.11463 9.18721 5.35862 9.00917 6.59659C8.98814 6.74383 8.95283 6.89031 8.90701 7.03229C8.84842 7.21483 8.87922 7.36282 9.06176 7.43418C9.26383 7.51306 9.35848 7.38385 9.41933 7.21108C9.63417 6.59885 9.83775 5.98211 10.0691 5.3759C10.5334 4.16121 11.0141 2.95403 11.8645 1.94066C11.9126 1.88357 11.9479 1.81596 12.0312 1.80319C12.0726 2.18856 11.8472 3.29282 11.552 3.98768C11.1035 5.04462 10.6333 6.09254 10.172 7.14422C10.1322 7.23586 10.0901 7.32676 10.0586 7.42066C10.0203 7.53559 10.021 7.65203 10.1502 7.70837C10.2689 7.7602 10.3628 7.70837 10.4432 7.60996C11.0772 6.83247 11.8269 6.16766 12.5406 5.46829C12.8501 5.16556 13.1896 4.89363 13.5562 4.57211C13.6426 4.84029 13.4863 4.9725 13.3849 5.10246C12.8681 5.76276 12.2837 6.36222 11.709 6.97069C11.4603 7.23361 11.2342 7.51681 10.9923 7.78649C10.9217 7.86462 10.8526 7.93899 10.9029 8.04866C10.9585 8.16885 11.0675 8.12378 11.1659 8.12604C12.4271 8.14782 13.6861 7.95176 14.9474 8.09148C15.3756 8.13881 15.8008 8.20942 16.3334 8.28379C16.0231 8.47685 15.7767 8.49337 15.5476 8.54821C14.2142 8.86822 12.8388 8.80662 11.4889 8.97639C11.3401 8.99517 11.1914 9.01245 11.0434 9.03424C10.924 9.05151 10.8158 9.09658 10.8188 9.23856C10.8211 9.37077 10.9097 9.42411 11.0359 9.4519C11.6369 9.58411 12.2476 9.64045 12.8583 9.66074C13.7357 9.69003 14.6034 9.78243 15.462 9.96121C15.5701 9.98375 15.764 9.93643 15.7564 10.1084C15.7482 10.2857 15.5491 10.2504 15.4259 10.2744C14.6357 10.4247 13.8341 10.4097 13.0341 10.4187C12.6224 10.4232 12.21 10.4495 11.7984 10.4728C11.5392 10.487 11.4633 10.5847 11.6151 10.8341C11.7623 11.0767 11.9576 11.2608 12.1785 11.426C13.1896 12.1787 14.0369 13.0937 14.8122 14.08C14.8648 14.1469 14.9001 14.2265 14.9609 14.3302C14.7604 14.373 14.6349 14.2723 14.5042 14.195C13.279 13.4693 12.2529 12.498 11.2215 11.5335C10.957 11.2863 10.6836 11.0489 10.4117 10.81C10.3478 10.7537 10.2727 10.6748 10.1818 10.7289C10.0819 10.7883 10.1487 10.8829 10.1645 10.9648C10.3906 12.1404 10.637 13.313 10.8323 14.4939C10.9135 14.983 10.9653 15.4855 10.918 15.9881C10.9045 16.1338 10.9337 16.3434 10.7745 16.3772C10.6175 16.411 10.5416 16.2127 10.4823 16.0827C10.1908 15.4442 9.97597 14.7771 9.85052 14.089C9.65896 13.0336 9.31041 12.0112 9.21275 10.9363C9.20073 10.8018 9.21125 10.5569 8.9919 10.5561C8.76879 10.5554 8.76053 10.798 8.71095 10.9498C8.28652 12.2508 7.62772 13.443 6.99746 14.6472C6.77736 15.0678 6.4596 15.4367 6.14936 15.8108C6.0825 15.3067 6.1734 14.8327 6.34091 14.3843C6.83971 13.0516 7.32949 11.7145 7.91017 10.4142C7.96275 10.297 8.09271 10.1452 7.97252 10.0386C7.82303 9.90563 7.69533 10.0889 7.59316 10.1685C6.30861 11.1706 4.89711 11.9752 3.50664 12.8127C3.37969 12.8894 3.25724 12.981 3.10099 12.9953C3.08522 12.9803 3.07094 12.9645 3.05517 12.9487Z" fill="#D87756"/>
</g>
</g>
</g>
</svg>
