<svg width="16" height="16" viewBox="0 0 16 16" fill="none" xmlns="http://www.w3.org/2000/svg">
<mask id="mask0_1576_10841" style="mask-type:luminance" maskUnits="userSpaceOnUse" x="0" y="0" width="16" height="16">
<path d="M15.6129 0H0V15.6129H15.6129V0Z" fill="white"/>
</mask>
<g mask="url(#mask0_1576_10841)">
<mask id="mask1_1576_10841" style="mask-type:luminance" maskUnits="userSpaceOnUse" x="0" y="0" width="16" height="16">
<path d="M15.6129 0H0V15.7031H15.6129V0Z" fill="white"/>
</mask>
<g mask="url(#mask1_1576_10841)">
<path d="M13.0082 8.26668C13.6963 8.43945 14.4182 8.46274 15.0831 8.73317C15.2453 8.79928 15.4992 8.782 15.497 9.03745C15.4947 9.27325 15.2844 9.35965 15.0988 9.43855C14.3198 9.76985 13.4943 9.78035 12.6679 9.78035C12.2803 9.78035 11.8927 9.77585 11.5051 9.77505C11.4345 9.77505 11.3406 9.74425 11.3038 9.82165C11.2482 9.93885 11.3766 9.96285 11.4352 10.008C12.39 10.7352 13.1292 11.6659 13.8796 12.5854C14.0148 12.7514 14.1268 12.9354 14.1861 13.1413C14.2748 13.45 14.09 13.6416 13.7797 13.5522C13.1795 13.3786 12.6815 13.0143 12.1902 12.6485C11.3466 12.0212 10.5496 11.3376 9.81112 10.5879C9.76012 10.5361 9.71502 10.4677 9.58732 10.4865C9.69092 11.0792 9.80662 11.6712 9.89602 12.2669C10.0019 12.9715 10.0883 13.6784 10.1755 14.3852C10.2093 14.6594 10.1927 14.9351 10.1462 15.2078C10.1041 15.4527 9.96742 15.63 9.73082 15.6901C9.50242 15.7479 9.34992 15.5849 9.23422 15.4204C8.87892 14.9163 8.63102 14.359 8.45374 13.7685C8.13748 12.7146 7.93316 11.6359 7.72357 10.4505C7.45915 11.0116 7.19247 11.4834 7.00993 11.9859C6.65837 12.9557 6.19638 13.8632 5.62172 14.7158C5.53157 14.8495 5.42115 14.9704 5.3295 15.1034C5.19053 15.304 4.99597 15.31 4.7939 15.2544C4.59483 15.1995 4.5475 15.0253 4.51896 14.8465C4.44834 14.4025 4.52121 13.9706 4.66394 13.5537C4.99897 12.5756 5.35129 11.6028 5.69383 10.627C5.77797 10.3881 5.95675 10.1853 6.00558 9.85845C5.50904 10.1004 5.15973 10.4414 4.75859 10.7044C3.89396 11.273 3.0714 11.9085 2.13165 12.357C1.93032 12.4532 1.6982 12.5703 1.51266 12.3525C1.3211 12.1286 1.46759 11.8988 1.58853 11.6997C1.9446 11.1153 2.47645 10.6901 2.96097 10.2236C3.41845 9.78255 3.88645 9.35215 4.37998 8.88867C3.94654 8.7497 3.52061 8.78425 3.11046 8.7497C2.20827 8.67383 1.33312 8.48152 0.462481 8.25165C0.334781 8.21785 0.234122 8.1555 0.148482 8.06085C-0.0798884 7.8092 -0.0520885 7.63567 0.270172 7.53952C0.892922 7.35472 1.52468 7.19096 2.18122 7.20073C2.8558 7.21049 3.53188 7.1842 4.20496 7.2503C4.30411 7.26007 4.44609 7.33143 4.50468 7.20598C4.55727 7.09255 4.41379 7.04898 4.34994 6.98062C3.40117 5.96575 2.47344 4.93436 1.78835 3.71291C1.72149 3.59347 1.64337 3.47478 1.6028 3.34557C1.54721 3.17054 1.47059 2.97223 1.65388 2.82499C1.83192 2.68226 2.04526 2.70179 2.21728 2.81898C2.7619 3.19158 3.35084 3.51234 3.75724 4.05696C3.80982 4.12757 3.84889 4.2087 3.98335 4.18917C3.94429 3.86615 3.7933 3.5852 3.64907 3.30876C3.46728 2.96096 3.37112 2.58611 3.26295 2.21502C3.21487 2.0505 3.20586 1.86496 3.36812 1.73124C3.54315 1.58777 3.71142 1.64861 3.89171 1.73049C4.87728 2.17746 5.42565 3.05636 6.02211 3.88418C6.2978 4.26729 6.53593 4.6767 6.83265 5.13943C6.84842 4.86224 6.8612 4.64815 6.87246 4.43406C6.94082 3.12397 7.01594 1.81538 7.50723 0.575901C7.6169 0.299461 7.71456 -0.0551089 8.09467 0.00349108C8.46425 0.0605811 8.59046 0.405381 8.63478 0.736661C8.75347 1.63134 8.6836 2.52977 8.6498 3.42595C8.61975 3.50182 8.58144 3.60999 8.68661 3.62276C8.75422 3.63103 8.78652 3.51008 8.78952 3.42445C9.22902 2.41408 9.71272 1.43001 10.4722 0.612711C10.6427 0.429421 10.7915 0.107151 11.0942 0.238611C11.427 0.382091 11.3225 0.734401 11.2857 1.00934C11.104 2.37051 10.639 3.6438 10.0455 4.87501C10.0147 4.93811 9.98842 5.00347 9.94112 5.11089C10.2145 5.01549 10.3843 4.83971 10.5548 4.67219C11.2414 3.99686 11.9731 3.37412 12.7446 2.7987C12.8144 2.74687 12.8828 2.68827 12.9602 2.65146C13.0736 2.59738 13.2013 2.55306 13.317 2.63494C13.4469 2.72658 13.3959 2.86405 13.3598 2.97824C13.181 3.54464 12.8572 4.03367 12.5147 4.51068C11.9783 5.25812 11.282 5.86434 10.6202 6.5915C11.2805 6.5915 11.8724 6.5915 12.4636 6.5915C13.3508 6.59075 14.2372 6.59977 15.1078 6.80935C15.3249 6.86193 15.6029 6.84691 15.6119 7.14664C15.6194 7.41932 15.3865 7.55529 15.1589 7.63792C14.594 7.8415 14.0111 7.97897 13.4146 8.05484C13.329 8.06611 13.2441 8.08864 13.1592 8.10592C12.7784 8.09465 12.3983 8.09691 12.0219 8.16602C11.898 8.11719 11.7845 8.13296 11.5982 8.23062H11.9971C12.3337 8.24189 12.671 8.25316 13.0075 8.26442L13.0082 8.26668ZM1.99568 11.8898C2.15193 11.8755 2.27362 11.7838 2.40133 11.7072C3.7918 10.8696 5.2033 10.0651 6.48785 9.06295C6.59001 8.98335 6.71772 8.80003 6.86721 8.93295C6.9874 9.03965 6.85744 9.19065 6.80486 9.30855C6.22418 10.609 5.73515 11.9461 5.2356 13.2787C5.06733 13.7279 4.97719 14.2012 5.04404 14.7053C5.35429 14.3312 5.6728 13.9623 5.89215 13.5416C6.52165 12.3375 7.18046 11.1453 7.60563 9.84415C7.65521 9.69245 7.66348 9.44905 7.88658 9.45055C8.10593 9.45135 8.09542 9.69625 8.10743 9.83065C8.20434 10.9057 8.55365 11.9288 8.7452 12.9835C8.8699 13.6716 9.08552 14.3387 9.37692 14.9772C9.43632 15.1071 9.51222 15.3055 9.66922 15.2717C9.82842 15.2371 9.79912 15.0275 9.81262 14.8825C9.86002 14.3807 9.80812 13.8774 9.72702 13.3884C9.53172 12.2075 9.28532 11.0349 9.05922 9.85925C9.04342 9.77735 8.97662 9.68265 9.07652 9.62335C9.16812 9.56925 9.24252 9.64815 9.30632 9.70445C9.57832 9.94335 9.85172 10.1808 10.1161 10.4279C11.1475 11.3925 12.1744 12.363 13.3989 13.0894C13.5296 13.1668 13.6543 13.2675 13.8556 13.2246C13.7947 13.121 13.7594 13.0413 13.7069 12.9745C12.9309 11.9889 12.0835 11.074 11.0732 10.3205C10.8515 10.156 10.657 9.97115 10.5098 9.72855C10.358 9.47915 10.4339 9.38145 10.693 9.36715C11.1047 9.34465 11.5164 9.31835 11.9288 9.31305C12.7288 9.30405 13.5296 9.31915 14.3206 9.16885C14.4438 9.14555 14.6428 9.18085 14.6511 9.00285C14.6586 8.83083 14.4648 8.87815 14.3566 8.85562C13.498 8.67683 12.6304 8.58368 11.753 8.55514C11.1415 8.53485 10.5308 8.47852 9.93062 8.3463C9.80442 8.31851 9.71572 8.26442 9.71352 8.13296C9.71122 7.99099 9.81862 7.94667 9.93812 7.92864C10.0861 7.90685 10.2348 7.88957 10.3835 7.87079C11.7335 7.70102 13.1089 7.76262 14.4423 7.44261C14.6714 7.38777 14.9185 7.3705 15.228 7.17819C14.6954 7.10382 14.2703 7.03321 13.8421 6.98588C12.5808 6.84616 11.321 7.04222 10.0605 7.02044C9.96212 7.01893 9.85322 7.06326 9.79762 6.94306C9.74652 6.83339 9.81642 6.75902 9.88702 6.6809C10.1289 6.41121 10.3558 6.12801 10.6037 5.86509C11.1783 5.25587 11.7628 4.65641 12.2796 3.99686C12.381 3.8669 12.5372 3.73469 12.4508 3.46651C12.085 3.78728 11.7447 4.05921 11.4352 4.3627C10.7216 5.06206 9.97192 5.72687 9.33792 6.50436C9.25752 6.60277 9.16362 6.6546 9.04492 6.60277C8.91572 6.54568 8.91502 6.42999 8.95332 6.31506C8.98482 6.22041 9.02692 6.12952 9.06672 6.03862C9.52722 4.98694 9.99742 3.93902 10.4467 2.88208C10.7419 2.18722 10.9672 1.08296 10.9259 0.697591C10.8433 0.710361 10.808 0.778721 10.7599 0.835821C9.90882 1.84918 9.42802 3.05711 8.96452 4.27105C8.73318 4.87727 8.52961 5.494 8.31477 6.10623C8.25392 6.279 8.15927 6.40821 7.9572 6.32933C7.7739 6.25797 7.7431 6.10998 7.80245 5.92744C7.84827 5.78622 7.88358 5.63898 7.90461 5.49175C8.08265 4.25377 8.19232 3.00979 8.21035 1.75979C8.21636 1.34738 8.29899 0.914691 8.06311 0.524071C7.92414 0.578151 7.91813 0.685581 7.88358 0.775721C7.55005 1.6396 7.47868 2.5493 7.42985 3.459C7.38328 4.33114 7.37877 5.20479 7.35398 6.07768C7.34947 6.23844 7.30365 6.38192 7.1136 6.4022C6.96937 6.41798 6.84767 6.38718 6.78007 6.22717C6.36766 5.24986 5.68332 4.44232 5.08761 3.58295C4.72028 3.0526 4.3552 2.48319 3.68588 2.18722C3.74222 2.52526 3.83912 2.81447 3.96908 3.09843C4.55652 4.37622 5.34002 5.53532 6.12878 6.69216C6.23319 6.84466 6.34061 7.01217 6.14681 7.14964C5.94774 7.29087 5.87487 7.08354 5.77346 6.96485C4.7368 5.75241 3.72043 4.52045 2.47194 3.50933C2.34649 3.40792 2.23306 3.33505 2.06178 3.38989C2.74312 4.5565 3.60925 5.56011 4.6076 6.46004C4.8923 6.71695 5.19804 6.96335 5.41739 7.28862C5.49026 7.39604 5.53833 7.50571 5.46171 7.63642C5.38809 7.76112 5.27692 7.73633 5.16424 7.73107C4.34017 7.69426 3.51611 7.67022 2.69279 7.61914C1.89427 7.56956 1.11452 7.67623 0.329522 7.86328C0.732162 7.99099 1.13781 8.08864 1.54947 8.13972C2.62819 8.27344 3.71968 8.2787 4.79314 8.46274C4.9201 8.48452 5.09588 8.44171 5.13419 8.62275C5.16424 8.76247 5.03954 8.8481 4.94939 8.92995C4.46036 9.37615 3.95781 9.80815 3.47629 10.2619C2.94294 10.7645 2.31945 11.1821 1.95061 11.8439C1.93934 11.868 1.92882 11.8913 1.91755 11.9153C1.94385 11.907 1.97014 11.8988 1.99643 11.8905L1.99568 11.8898ZM11.2542 9.78185C11.2399 9.78935 11.2249 9.79765 11.2099 9.80585C11.2174 9.81335 11.2271 9.82765 11.2332 9.82615C11.2489 9.82245 11.264 9.81265 11.279 9.80515C11.2715 9.79765 11.2632 9.79085 11.2542 9.78185ZM6.01384 9.86295C6.00408 9.85325 5.99581 9.84495 5.9868 9.83595C5.97854 9.85245 5.96727 9.86895 5.96351 9.88625C5.96201 9.89225 5.97854 9.90275 5.9868 9.91105C5.99581 9.89455 6.00483 9.87875 6.01384 9.86295Z" fill="#D87756"/>
<path d="M1.95019 11.8437C2.31978 11.1827 2.94252 10.765 3.47588 10.2617C3.95739 9.80804 4.45995 9.37604 4.94898 8.92984C5.03837 8.84797 5.16307 8.76233 5.13377 8.62261C5.09546 8.44232 4.91968 8.48439 4.79273 8.46261C3.71926 8.27856 2.62777 8.2733 1.54905 8.13959C1.13739 8.08851 0.731742 7.99085 0.329102 7.86315C1.11411 7.6761 1.89385 7.56943 2.69237 7.61901C3.51494 7.67009 4.33975 7.69338 5.16382 7.73094C5.2765 7.7362 5.38768 7.76099 5.46129 7.63629C5.53792 7.50558 5.48909 7.3959 5.41697 7.28848C5.19762 6.96321 4.89264 6.71757 4.60718 6.45991C3.60959 5.55997 2.7427 4.55637 2.06137 3.38976C2.23264 3.33492 2.34607 3.40779 2.47152 3.5092C3.72002 4.52031 4.73639 5.75228 5.77304 6.96472C5.87445 7.08341 5.94732 7.29074 6.14639 7.14951C6.34095 7.01204 6.23278 6.84452 6.12836 6.69203C5.3396 5.53518 4.5561 4.37608 3.96866 3.09829C3.83795 2.81434 3.74105 2.52513 3.68546 2.18709C4.35553 2.48306 4.72061 3.05247 5.0872 3.58282C5.68215 4.44219 6.36649 5.24973 6.77965 6.22704C6.84726 6.38629 6.9682 6.41709 7.11318 6.40207C7.30399 6.38179 7.34906 6.23831 7.35357 6.07755C7.37836 5.20466 7.38286 4.33026 7.42944 3.45887C7.47751 2.54917 7.54963 1.63871 7.88316 0.775586C7.91772 0.686186 7.92297 0.578766 8.0627 0.523926C8.29857 0.914556 8.21594 1.3465 8.20993 1.75966C8.1919 3.00965 8.08223 4.25364 7.90419 5.49161C7.88316 5.63885 7.84785 5.78533 7.80203 5.92731C7.74344 6.10985 7.77424 6.25784 7.95678 6.3292C8.15885 6.40808 8.2535 6.27887 8.31435 6.1061C8.52919 5.49387 8.73277 4.87713 8.96412 4.27092C9.42842 3.05623 9.90912 1.84905 10.7595 0.835676C10.8076 0.778586 10.8429 0.710976 10.9262 0.698206C10.9676 1.08358 10.7422 2.18784 10.447 2.8827C9.99852 3.93964 9.52832 4.98756 9.06702 6.03924C9.02722 6.13088 8.98512 6.22178 8.95362 6.31568C8.91532 6.43061 8.91602 6.54705 9.04522 6.60339C9.16392 6.65522 9.25782 6.60339 9.33822 6.50498C9.97222 5.72749 10.7219 5.06268 11.4356 4.36331C11.7451 4.06058 12.0846 3.78865 12.4512 3.46713C12.5376 3.73531 12.3813 3.86752 12.2799 3.99748C11.7631 4.65778 11.1787 5.25724 10.604 5.86571C10.3553 6.12863 10.1292 6.41183 9.88732 6.68151C9.81672 6.75964 9.74762 6.83401 9.79792 6.94368C9.85352 7.06387 9.96252 7.0188 10.0609 7.02106C11.3221 7.04284 12.5811 6.84678 13.8424 6.9865C14.2706 7.03383 14.6958 7.10444 15.2284 7.17881C14.9181 7.37187 14.6717 7.38839 14.4426 7.44323C13.1092 7.76324 11.7338 7.70164 10.3839 7.87141C10.2351 7.89019 10.0864 7.90747 9.93842 7.92926C9.81902 7.94653 9.71082 7.9916 9.71382 8.13358C9.71612 8.26579 9.80472 8.31913 9.93092 8.34692C10.5319 8.47913 11.1426 8.53547 11.7533 8.55576C12.6307 8.58505 13.4984 8.67745 14.357 8.85623C14.4651 8.87877 14.659 8.83145 14.6514 9.00344C14.6432 9.18074 14.4441 9.14544 14.3209 9.16944C13.5307 9.31974 12.7291 9.30474 11.9291 9.31374C11.5174 9.31824 11.105 9.34454 10.6934 9.36784C10.4342 9.38204 10.3583 9.47974 10.5101 9.72914C10.6573 9.97174 10.8526 10.1558 11.0735 10.321C12.0846 11.0737 12.9319 11.9887 13.7072 12.975C13.7598 13.0419 13.7951 13.1215 13.8559 13.2252C13.6554 13.268 13.5299 13.1673 13.3992 13.09C12.174 12.3643 11.1479 11.393 10.1165 10.4285C9.85202 10.1813 9.57862 9.94394 9.30672 9.70504C9.24282 9.64874 9.16772 9.56984 9.07682 9.62394C8.97692 9.68334 9.04372 9.77794 9.05952 9.85984C9.28562 11.0354 9.53202 12.208 9.72732 13.3889C9.80852 13.878 9.86032 14.3805 9.81302 14.8831C9.79952 15.0288 9.82872 15.2384 9.66952 15.2722C9.51252 15.306 9.43662 15.1077 9.37732 14.9777C9.08582 14.3392 8.87099 13.6721 8.74554 12.984C8.55398 11.9286 8.20543 10.9062 8.10777 9.83134C8.09575 9.69684 8.10627 9.45194 7.88692 9.45114C7.66381 9.45044 7.65555 9.69304 7.60597 9.84484C7.18154 11.1458 6.52274 12.338 5.89248 13.5422C5.67238 13.9628 5.35462 14.3317 5.04438 14.7058C4.97752 14.2017 5.06842 13.7277 5.23593 13.2793C5.73473 11.9466 6.22451 10.6095 6.80519 9.30924C6.85777 9.19204 6.98773 9.04024 6.86754 8.93364C6.71805 8.80065 6.59035 8.98394 6.48818 9.06354C5.20363 10.0656 3.79213 10.8702 2.40166 11.7077C2.27471 11.7844 2.15226 11.876 1.99601 11.8903C1.98024 11.8753 1.96596 11.8595 1.95019 11.8437Z" fill="#D87756"/>
</g>
</g>
</svg>
