<svg width="101" height="22" viewBox="0 0 101 22" fill="none" xmlns="http://www.w3.org/2000/svg">
<path d="M15.4208 18.5926V21.7943H0V1.2334H15.0094V4.43509H3.8184V9.78086H13.7463V12.9238H3.8184V18.5926H15.4206H15.4208Z" fill="black"/>
<path d="M19.3276 0H22.9993V21.7945H19.3276V0Z" fill="black"/>
<path d="M26.5259 13.9521C26.5259 9.25229 30.0506 5.93311 34.8676 5.93311C39.7436 5.93311 43.2388 9.25229 43.2388 13.9521C43.2388 18.6519 39.7436 22.0001 34.8676 22.0001C30.0506 22.0001 26.5259 18.6516 26.5259 13.9521ZM39.5379 13.9521C39.5379 10.9559 37.5406 9.04679 34.8676 9.04679C32.2241 9.04679 30.2268 10.9559 30.2268 13.9521C30.2268 16.9483 32.2241 18.8574 34.8676 18.8574C37.5406 18.8574 39.5379 16.9481 39.5379 13.9521Z" fill="black"/>
<path d="M62.1235 0V21.7945H58.5988V19.7679C57.3651 21.2658 55.5441 22 53.3998 22C48.847 22 45.4692 18.8278 45.4692 13.952C45.4692 9.07616 48.847 5.933 53.3998 5.933C55.4266 5.933 57.2182 6.60867 58.452 8.04781V0H62.1235ZM58.5108 13.952C58.5108 10.9558 56.484 9.04668 53.8405 9.04668C51.1969 9.04668 49.1702 10.9558 49.1702 13.952C49.1702 16.9482 51.1967 18.8573 53.8405 18.8573C56.4842 18.8573 58.5108 16.9479 58.5108 13.952Z" fill="black"/>
<path d="M80.0699 12.6005V21.7941H76.604V19.885C75.7228 21.2361 74.0192 21.9996 71.6692 21.9996C68.0858 21.9996 65.8242 20.0318 65.8242 17.3C65.8242 14.6858 67.5866 12.6297 72.3451 12.6297H76.3983V12.3947C76.3983 10.2507 75.1059 8.98755 72.4918 8.98755C70.7295 8.98755 68.9084 9.575 67.7335 10.5442L66.2942 7.87119C67.9683 6.57881 70.4063 5.93262 72.9323 5.93262C77.4559 5.93262 80.0699 8.07712 80.0699 12.6005ZM76.3983 16.8888V15.0677H72.6093C70.1128 15.0677 69.4371 16.0079 69.4371 17.1531C69.4371 18.4749 70.5533 19.3266 72.4331 19.3266C74.2249 19.3266 75.7815 18.5042 76.3983 16.8888Z" fill="black"/>
<path d="M100.217 12.8064V21.7944H96.5455V13.2764C96.5455 10.4859 95.1649 9.1348 92.8153 9.1348C90.2011 9.1348 88.4388 10.7209 88.4388 13.8639V21.7946H84.7671V6.10934H88.2625V8.13614C89.4667 6.69679 91.376 5.93311 93.667 5.93311C97.4267 5.93311 100.217 8.07739 100.217 12.8064Z" fill="black"/>
</svg>
