<svg width="20" height="20" viewBox="0 0 20 20" fill="none" xmlns="http://www.w3.org/2000/svg">
<path fill-rule="evenodd" clip-rule="evenodd" d="M19.6 10.2265C19.6 9.51747 19.5364 8.83568 19.4182 8.18115H10V12.0492H15.3818C15.15 13.2992 14.4455 14.3582 13.3864 15.0673V17.5763H16.6182C18.5091 15.8355 19.6 13.2719 19.6 10.2265Z" fill="#4285F4"/>
<path fill-rule="evenodd" clip-rule="evenodd" d="M9.99984 19.9999C12.6998 19.9999 14.9635 19.1045 16.618 17.5772L13.3862 15.0682C12.4907 15.6682 11.3453 16.0227 9.99984 16.0227C7.39529 16.0227 5.19075 14.2637 4.40439 11.9001H1.06348V14.491C2.70893 17.7591 6.09075 19.9999 9.99984 19.9999Z" fill="#34A853"/>
<path fill-rule="evenodd" clip-rule="evenodd" d="M4.40455 11.8997C4.20455 11.2998 4.09091 10.6589 4.09091 9.9998C4.09091 9.34073 4.20455 8.69984 4.40455 8.09986V5.50903H1.06364C0.386364 6.85899 0 8.38621 0 9.9998C0 11.6134 0.386364 13.1406 1.06364 14.4906L4.40455 11.8997Z" fill="#FBBC05"/>
<path fill-rule="evenodd" clip-rule="evenodd" d="M9.99984 3.97715C11.468 3.97715 12.7862 4.48168 13.8226 5.47255L16.6908 2.60446C14.9589 0.990878 12.6953 0 9.99984 0C6.09075 0 2.70893 2.24084 1.06348 5.50892L4.40439 8.09974C5.19075 5.73618 7.3953 3.97715 9.99984 3.97715Z" fill="#EA4335"/>
</svg>
