<svg width="16" height="16" viewBox="0 0 16 16" fill="none" xmlns="http://www.w3.org/2000/svg">
<path d="M14.8569 7.99778C14.8569 11.7849 11.7868 14.8549 7.99972 14.8549M14.8569 7.99778C14.8569 4.21068 11.7868 1.14062 7.99972 1.14062M14.8569 7.99778H1.14258M7.99972 14.8549C4.21263 14.8549 1.14258 11.7849 1.14258 7.99778M7.99972 14.8549C6.31657 14.8549 4.9521 11.7849 4.9521 7.99778C4.9521 4.21068 6.31657 1.14062 7.99972 1.14062M7.99972 14.8549C9.68287 14.8549 11.0473 11.7849 11.0473 7.99778C11.0473 4.21068 9.68287 1.14063 7.99972 1.14062M7.99972 1.14062C4.21263 1.14062 1.14258 4.21068 1.14258 7.99778" stroke="#7C7C7C" stroke-width="1.33" stroke-linecap="square"/>
</svg>
