<svg width="50" height="49" viewBox="0 0 50 49" fill="none" xmlns="http://www.w3.org/2000/svg">
<path d="M45.0381 19.8546C45.5763 18.2698 45.763 16.5906 45.5856 14.9293C45.4085 13.2681 44.8713 11.6632 44.0106 10.2219C42.7344 8.042 40.7849 6.31608 38.444 5.29318C36.1029 4.27031 33.4909 4.00335 30.9849 4.53086C29.8543 3.28154 28.4652 2.28344 26.9097 1.60335C25.3542 0.923266 23.6687 0.576882 21.9657 0.58739C19.4037 0.581324 16.9058 1.3734 14.8323 2.84942C12.7588 4.32543 11.2168 6.40913 10.4286 8.80008C8.75951 9.13519 7.1827 9.81609 5.80367 10.7972C4.42465 11.7784 3.27525 13.0372 2.43242 14.4893C1.14608 16.6632 0.596998 19.1815 0.864354 21.6814C1.13171 24.1811 2.20169 26.5329 3.91998 28.3976C3.38197 29.9825 3.19533 31.6617 3.37256 33.3231C3.5498 34.9841 4.0868 36.5891 4.94766 38.0303C6.22393 40.2101 8.17325 41.936 10.5144 42.9588C12.8555 43.9818 15.4675 44.2488 17.9734 43.7215C19.1037 44.9707 20.4931 45.9688 22.0484 46.6489C23.6039 47.329 25.2895 47.6754 26.9924 47.665C29.5559 47.6714 32.055 46.8789 34.1291 45.4021C36.2035 43.9252 37.7459 41.84 38.5334 39.4477C40.2024 39.1126 41.7793 38.4316 43.1583 37.4505C44.5373 36.4693 45.6867 35.2104 46.5297 33.7584C47.8144 31.5845 48.3622 29.067 48.094 26.5681C47.8261 24.0693 46.756 21.7186 45.0381 19.8546ZM26.9963 44.5874C24.892 44.5903 22.8539 43.8676 21.238 42.5456C21.3109 42.5065 21.4387 42.4379 21.522 42.3877L31.0795 36.9733C31.3194 36.8395 31.5184 36.6454 31.6565 36.4108C31.7948 36.1765 31.8667 35.9103 31.8648 35.6396V22.4245L35.9047 24.7123C35.9258 24.7226 35.9441 24.7379 35.9577 24.7569C35.9714 24.7758 35.9802 24.7978 35.9832 24.8208V35.7648C35.9802 38.1024 35.0325 40.3433 33.3482 41.9971C31.6636 43.6507 29.3796 44.5823 26.9963 44.5874ZM7.66919 36.4915C6.61522 34.7056 6.23533 32.6129 6.59608 30.5795C6.66707 30.6213 6.79103 30.6956 6.87997 30.7457L16.4375 36.1602C16.6757 36.2966 16.9466 36.3687 17.2225 36.3687C17.4983 36.3687 17.7692 36.2966 18.0075 36.1602L29.6761 29.5522V34.1278C29.6775 34.1512 29.6729 34.1745 29.6627 34.1957C29.6526 34.2168 29.6376 34.2353 29.6185 34.2493L19.9568 39.7203C17.8902 40.8878 15.4358 41.2034 13.1322 40.598C10.8286 39.9927 8.86393 38.5158 7.66919 36.4915ZM5.1549 16.028C6.20431 14.2395 7.86181 12.8703 9.83712 12.1598C9.83712 12.2405 9.8324 12.3835 9.8324 12.4827V23.3117C9.83073 23.5821 9.90254 23.8481 10.0404 24.0825C10.1783 24.3167 10.3772 24.5107 10.6169 24.6445L22.2856 31.2516L18.2459 33.5394C18.226 33.5523 18.2031 33.56 18.1793 33.5622C18.1555 33.5643 18.1315 33.5606 18.1096 33.5515L8.44703 28.0756C6.38405 26.9038 4.87899 24.9777 4.26187 22.7192C3.64473 20.4609 3.96587 18.0546 5.1549 16.028ZM38.3451 23.6031L26.6763 16.9951L30.7162 14.7083C30.7361 14.6955 30.7588 14.6876 30.7826 14.6855C30.8064 14.6833 30.8304 14.6871 30.8523 14.6963L40.5149 20.1674C41.9953 21.0061 43.2012 22.2409 43.992 23.7275C44.7825 25.2141 45.125 26.8907 44.979 28.5614C44.8334 30.2321 44.2052 31.8271 43.1684 33.1603C42.1317 34.4935 40.7289 35.5093 39.1249 36.0889C39.1249 36.0071 39.1249 35.8642 39.1249 35.7648V24.9359C39.1271 24.6659 39.056 24.4001 38.9191 24.1659C38.7819 23.9317 38.584 23.7375 38.3451 23.6031ZM42.3659 17.668C42.2948 17.6253 42.171 17.5519 42.0819 17.5019L32.5243 12.0874C32.2862 11.9511 32.0154 11.8792 31.7396 11.8792C31.4638 11.8792 31.1926 11.9511 30.9545 12.0874L19.2858 18.6955V14.1199C19.2845 14.0965 19.2891 14.0732 19.2992 14.052C19.3092 14.0309 19.3245 14.0124 19.3436 13.9984L29.0051 8.53187C30.4852 7.6948 32.178 7.28842 33.885 7.36029C35.592 7.43216 37.2427 7.97929 38.6444 8.93772C40.0458 9.89611 41.1403 11.2261 41.7993 12.7722C42.4583 14.3183 42.6548 16.0164 42.3659 17.668ZM17.0896 25.8232L13.0488 23.5354C13.0277 23.5251 13.0093 23.5098 12.9957 23.4908C12.982 23.4719 12.9732 23.4499 12.9703 23.4268V12.4827C12.9714 10.8065 13.4594 9.16532 14.3769 7.75121C15.2946 6.33707 16.6039 5.20855 18.1517 4.49773C19.6995 3.78693 21.4217 3.52322 23.1167 3.7375C24.8118 3.95178 26.4096 4.63517 27.7231 5.70766C27.6501 5.74664 27.5233 5.81535 27.4391 5.86546L17.8816 11.2799C17.6417 11.4136 17.4426 11.6076 17.3045 11.8419C17.1665 12.0761 17.0946 12.3422 17.0961 12.6126L17.0896 25.8232ZM19.2839 21.1827L24.481 18.2388L29.678 21.1808V27.0668L24.481 30.009L19.2839 27.0668V21.1827Z" fill="black"/>
</svg>
