<svg width="33" height="24" viewBox="0 0 33 24" fill="none" xmlns="http://www.w3.org/2000/svg">
<path d="M32.1729 2.29895V2.99833C31.9085 3.75834 31.8093 4.57193 31.3937 5.28398C30.5771 6.68698 29.3365 7.49493 27.7305 7.8009C27.3396 7.87562 26.9427 7.89396 26.9485 8.48477C26.9658 10.5674 26.3447 12.5146 25.4806 14.3885C24.848 15.7591 23.9064 16.9323 22.8511 18.0166C22.4643 18.4141 22.3794 18.661 23.0552 18.8429C23.6446 19.0022 24.2082 19.27 24.7674 19.5225C25.0938 19.6706 25.551 19.7593 25.4547 20.274C25.3642 20.7633 24.9717 20.9339 24.5303 21.0228C23.1745 21.295 21.8202 21.2244 20.512 20.8254C20.105 20.7012 19.8549 20.7463 19.5617 20.9678C16.2593 23.4594 12.4667 23.6651 8.78624 22.4497C3.62641 20.7463 0.590044 17.0183 0.0494715 11.6179C-0.491097 6.21462 3.43089 0.801506 10.2196 1.46421C11.5063 1.58972 12.6536 1.37257 13.8196 0.948151C14.6735 0.637939 15.5577 0.472973 16.4778 0.584357C16.7122 0.612558 17.0198 0.584357 17.109 0.825467C17.2211 1.1244 16.8603 1.1681 16.6949 1.29501C15.8337 1.95913 15.7389 2.96307 16.59 3.52285C18.1484 4.54655 19.4079 5.88043 20.732 7.15088C21.4134 7.80512 22.1379 8.40298 23.0307 8.77382C23.2278 8.8556 23.4146 8.97545 23.6158 8.78368C24.0845 8.3367 24.0284 7.32854 23.5095 6.92387C21.3445 5.23182 20.7708 2.31305 22.1538 0.0273955C22.6412 -0.0966893 22.7836 0.220563 22.8855 0.580117C23.0508 1.15964 23.3126 1.69828 23.8847 1.96477C24.95 2.45829 25.955 2.98845 26.1894 4.35055C27.0217 3.54683 27.8901 3.21124 28.8778 3.2197C29.7706 3.22676 30.511 2.93911 31.0732 2.25946C31.4713 1.77864 31.8264 1.78006 32.1745 2.30176L32.1729 2.29895ZM18.3008 20.4983C18.4272 20.9733 18.5754 21.3498 19.021 20.6872C19.0799 20.5998 19.2066 20.5547 19.3015 20.4898C19.5185 20.2811 19.2812 20.205 19.172 20.1259C17.3836 18.8358 16.0494 17.1549 14.8576 15.3487C13.1568 12.7713 11.1484 10.5096 8.19248 9.249C6.51903 8.53553 4.7895 8.07585 2.93346 8.31274C2.37276 8.38464 2.08234 8.62717 2.13554 9.22786C2.23186 10.2967 2.39001 11.3514 2.72355 12.3779C3.65086 15.2276 5.32143 17.5287 7.94809 19.1136C8.73305 19.5873 9.58415 19.8891 10.5172 19.6465C11.0348 19.5126 11.2821 19.218 10.914 18.6638C10.6581 18.2789 10.4439 17.8558 10.4151 17.3723C10.3907 16.9493 10.5704 16.7716 11.0103 16.8236C11.4014 16.8702 11.7349 17.0465 12.0613 17.234C12.8808 17.7063 13.6815 18.2126 14.4119 18.809C15.5476 19.7354 16.7582 20.4799 18.3008 20.4983ZM18.4202 11.5332C18.3929 12.454 18.5668 12.7882 19.2856 13.2196C19.842 13.5539 20.397 13.5468 20.9791 13.2719C21.363 13.0899 21.4408 12.8516 21.2666 12.485C20.7694 11.4388 20.1064 10.5081 19.1994 9.7679C18.6589 9.32654 18.0392 9.02199 17.2987 9.2067C17.0213 9.27578 16.7194 9.41115 16.7079 9.73688C16.6949 10.1246 17.0443 10.1049 17.3218 10.1627C18.2936 10.3629 18.4504 10.5645 18.4202 11.5332ZM17.6423 11.1681C17.6078 10.9283 17.4641 10.7704 17.224 10.7873C17.0256 10.8014 16.8689 10.9495 16.889 11.1638C16.9091 11.388 17.0313 11.5586 17.3002 11.5361C17.5216 11.5177 17.6251 11.3767 17.6438 11.1666L17.6423 11.1681Z" fill="#506BFC"/>
<path d="M18.3008 20.4985C18.6343 20.4957 18.9679 20.4928 19.3015 20.49C19.2066 20.5549 19.0799 20.6 19.021 20.6874C18.5754 21.35 18.4272 20.9736 18.3008 20.4985Z" fill="#4C6EF2"/>
</svg>
